<svg xmlns="http://www.w3.org/2000/svg" width="900" height="600" viewBox="0 0 900 600">
  <defs>
    <linearGradient id="bg" x1="0" x2="1" y1="0" y2="1">
      <stop offset="0" stop-color="#eafff6"/>
      <stop offset="0.5" stop-color="#f6f7fb"/>
      <stop offset="1" stop-color="#eef7ff"/>
    </linearGradient>
    <linearGradient id="card" x1="0" x2="1" y1="0" y2="0">
      <stop offset="0" stop-color="#0b6e4f" stop-opacity="0.15"/>
      <stop offset="1" stop-color="#0ea5e9" stop-opacity="0.12"/>
    </linearGradient>
  </defs>

  <rect width="900" height="600" fill="url(#bg)"/>
  <rect x="60" y="70" width="780" height="460" rx="28" fill="white" opacity="0.92"/>
  <rect x="60" y="70" width="780" height="460" rx="28" fill="url(#card)"/>
  <rect x="60" y="70" width="780" height="460" rx="28" fill="none" stroke="#d4d9e2" stroke-width="2"/>

  <g transform="translate(0,10)">
    <circle cx="450" cy="260" r="110" fill="#0b6e4f" opacity="0.10"/>
    <circle cx="450" cy="260" r="88" fill="#0ea5e9" opacity="0.10"/>
  </g>

  <g transform="translate(365,190)" fill="#1f2937">
    <path d="M70 0c-6.6 0-12 5.4-12 12v56c0 11.6 9.4 21 21 21h2v61c0 7.2 5.8 13 13 13s13-5.8 13-13V0H70z" opacity="0.9"/>
    <path d="M18 0c-2.2 0-4 1.8-4 4v60c0 8.8 7.2 16 16 16h6v70c0 7.2 5.8 13 13 13s13-5.8 13-13V80h6c8.8 0 16-7.2 16-16V4c0-2.2-1.8-4-4-4s-4 1.8-4 4v60c0 4.4-3.6 8-8 8h-6V4c0-2.2-1.8-4-4-4s-4 1.8-4 4v68H30c-4.4 0-8-3.6-8-8V4c0-2.2-1.8-4-4-4z" opacity="0.9"/>
  </g>

  <text x="450" y="435" text-anchor="middle" font-family="Segoe UI, system-ui, sans-serif" font-size="28" font-weight="800" fill="#1f2937">
    Food image unavailable
  </text>
  <text x="450" y="472" text-anchor="middle" font-family="Segoe UI, system-ui, sans-serif" font-size="18" fill="#5b6574">
    Check network / image host access
  </text>
</svg>

